<?xml version="1.0" encoding="UTF-8" standalone="no"?>
<!-- Generator: Adobe Illustrator 19.0.0, SVG Export Plug-In . SVG Version: 6.00 Build 0)  -->

<svg
   xmlns:dc="http://purl.org/dc/elements/1.1/"
   xmlns:cc="http://creativecommons.org/ns#"
   xmlns:rdf="http://www.w3.org/1999/02/22-rdf-syntax-ns#"
   xmlns:svg="http://www.w3.org/2000/svg"
   xmlns="http://www.w3.org/2000/svg"
   xmlns:sodipodi="http://sodipodi.sourceforge.net/DTD/sodipodi-0.dtd"
   xmlns:inkscape="http://www.inkscape.org/namespaces/inkscape"
   version="1.1"
   id="Layer_1"
   x="0px"
   y="0px"
   viewBox="0 0 496.652 496.652"
   style="enable-background:new 0 0 496.652 496.652;"
   xml:space="preserve"
   sodipodi:docname="小孔成像2.svg"
   inkscape:version="0.92.3 (2405546, 2018-03-11)"><metadata
   id="metadata53"><rdf:RDF><cc:Work
       rdf:about=""><dc:format>image/svg+xml</dc:format><dc:type
         rdf:resource="http://purl.org/dc/dcmitype/StillImage" /></cc:Work></rdf:RDF></metadata><defs
   id="defs51" /><sodipodi:namedview
   pagecolor="#ffffff"
   bordercolor="#666666"
   borderopacity="1"
   objecttolerance="10"
   gridtolerance="10"
   guidetolerance="10"
   inkscape:pageopacity="0"
   inkscape:pageshadow="2"
   inkscape:window-width="1920"
   inkscape:window-height="1001"
   id="namedview49"
   showgrid="false"
   inkscape:zoom="1.9007272"
   inkscape:cx="195.36039"
   inkscape:cy="274.39659"
   inkscape:window-x="2391"
   inkscape:window-y="844"
   inkscape:window-maximized="1"
   inkscape:current-layer="Layer_1" />







<g
   id="g4638"
   transform="translate(0,1.5783309)"><path
     inkscape:connector-curvature="0"
     id="path2"
     d="m 107.37483,229.91201 c -29.753669,0 -53.873739,24.1179 -53.873739,53.87373 0,29.75127 24.12007,53.87113 53.873739,53.87113 29.75236,0 53.87243,-24.11986 53.87243,-53.87113 0,-29.75605 -24.12007,-53.87373 -53.87243,-53.87373 z"
     style="fill:#48a1af;stroke-width:0.217161" /><path
     inkscape:connector-curvature="0"
     id="path4"
     d="m 107.21369,277.45723 c -0.41999,0 -0.76006,0.3403 -0.76006,0.76007 v 11.32168 c 0,0.41978 0.34007,0.76007 0.76006,0.76007 0.41977,0 0.76006,-0.34029 0.76006,-0.76007 V 278.2173 c 0,-0.41956 -0.3405,-0.76007 -0.76006,-0.76007 z"
     style="fill:#707070;stroke-width:0.217161" /><path
     inkscape:connector-curvature="0"
     id="path6"
     d="m 114.56416,287.55348 c -17.673649,-0.30316 -37.613589,-2.28214 -37.613589,-0.95355 0,-1.0617 16.38762,1.09992 31.276609,1.08016 v 50.0745 c 10.90887,-0.16938 21.03074,-3.57903 29.44486,-9.31251 v -41.84194 c 2.2e-4,-0.8352 -12.00183,1.14357 -23.10788,0.95334 z"
     style="fill:#f7f9f9;stroke-width:0.217161" /><path
     inkscape:connector-curvature="0"
     id="path8"
     d="m 76.950571,286.60014 v 41.75464 c 8.65756,5.93544 19.13427,9.41067 30.424259,9.41067 0.28513,0 0.78568,-0.006 1.06973,-0.0109 v -50.07449 c -14.889209,0.02 -31.493989,-2.14164 -31.493989,-1.07995 z"
     style="fill:#ffffff;stroke-width:0.217161" /><path
     inkscape:connector-curvature="0"
     id="path10"
     d="m 137.67226,286.60014 c 0,-0.85192 -15.34134,1.35792 -26.68996,0.14073 -20.992079,-2.25109 -34.031519,-1.45259 -34.031519,-0.14073 0,0 -1.8856,6.75979 -0.0691,7.16328 2.28128,0.50707 1.35182,-2.11211 2.78834,-1.35183 2.05196,1.08646 5.54326,3.06784 10.94188,2.85046 3.29455,-0.13247 1.01349,3.92279 3.04134,4.17644 2.02763,0.25343 1.01371,-4.0557 2.78748,-4.26483 17.460389,-2.0589 33.523789,-3.53495 36.795979,3.82811 2.57878,5.80233 5.53413,-1.18287 6.08354,-4.05569 0.54899,-2.87217 -1.64803,-8.34594 -1.64803,-8.34594 z"
     style="fill:#f2f2f2;stroke-width:0.217161" /><path
     inkscape:connector-curvature="0"
     id="path12"
     d="m 115.97223,254.72873 c -0.091,3.21311 -1.08233,5.88984 -3.75797,8.56613 0,0 3.43092,-9.01674 -0.20066,-15.06967 -3.86351,-6.43925 -9.46018,-8.78394 -9.46018,-8.78394 0,0 0.40544,8.27101 -1.69886,13.7439 -2.481709,6.45316 -7.532219,10.70322 -7.532219,17.40437 0,6.88292 6.26249,12.45744 13.988859,12.46135 7.72941,-0.004 13.98886,-5.57843 13.98886,-12.46135 2.1e-4,-5.56432 -2.32189,-11.06262 -5.32783,-15.86079 z"
     style="fill:#e17a2d;stroke-width:0.217161" /><path
     inkscape:connector-curvature="0"
     id="path14"
     d="m 104.53393,256.57286 c 0,0 0.22215,5.01664 -0.93271,8.33594 -1.36269,3.9139 -4.136699,6.49138 -4.136699,10.55468 0,4.17557 3.439179,7.55655 7.681639,7.55894 4.24571,-0.002 7.3674,-3.39575 7.68293,-7.55894 0.78895,-10.45522 -10.29516,-18.89062 -10.29516,-18.89062 z"
     style="fill:#f4e028;stroke-width:0.217161" /><path
     inkscape:connector-curvature="0"
     id="path16"
     d="m 105.49834,266.12121 c 0,0 0.14115,3.17902 -0.59111,5.28158 -0.86279,2.47954 -2.62092,4.11259 -2.62092,6.68855 0,2.64503 2.17943,4.78645 4.86701,4.78906 2.68997,-0.003 4.66766,-2.15185 4.86745,-4.78906 0.50055,-6.62428 -6.52243,-11.97013 -6.52243,-11.97013 z"
     style="fill:#ffffff;stroke-width:0.217161" /></g>
<g
   id="g18"
   transform="matrix(0.44565215,0,0,0.44565215,46.938891,116.43142)">
</g>
<g
   id="g20"
   transform="matrix(0.44565215,0,0,0.44565215,46.938891,116.43142)">
</g>
<g
   id="g22"
   transform="matrix(0.44565215,0,0,0.44565215,46.938891,116.43142)">
</g>
<g
   id="g24"
   transform="matrix(0.44565215,0,0,0.44565215,46.938891,116.43142)">
</g>
<g
   id="g26"
   transform="matrix(0.44565215,0,0,0.44565215,46.938891,116.43142)">
</g>
<g
   id="g28"
   transform="matrix(0.44565215,0,0,0.44565215,46.938891,116.43142)">
</g>
<g
   id="g30"
   transform="matrix(0.44565215,0,0,0.44565215,46.938891,116.43142)">
</g>
<g
   id="g32"
   transform="matrix(0.44565215,0,0,0.44565215,46.938891,116.43142)">
</g>
<g
   id="g34"
   transform="matrix(0.44565215,0,0,0.44565215,46.938891,116.43142)">
</g>
<g
   id="g36"
   transform="matrix(0.44565215,0,0,0.44565215,46.938891,116.43142)">
</g>
<g
   id="g38"
   transform="matrix(0.44565215,0,0,0.44565215,46.938891,116.43142)">
</g>
<g
   id="g40"
   transform="matrix(0.44565215,0,0,0.44565215,46.938891,116.43142)">
</g>
<g
   id="g42"
   transform="matrix(0.44565215,0,0,0.44565215,46.938891,116.43142)">
</g>
<g
   id="g44"
   transform="matrix(0.44565215,0,0,0.44565215,46.938891,116.43142)">
</g>
<g
   id="g46"
   transform="matrix(0.44565215,0,0,0.44565215,46.938891,116.43142)">
</g>
<g
   id="g4607"
   transform="matrix(0.10291543,0,0,0.10291543,111.00577,216.11109)"><path
     id="path2-0"
     d="m 976.47135,425.10045 c -137.012,0 -248.082,111.06 -248.082,248.082 0,137.001 111.07,248.07 248.082,248.07 137.00605,0 248.07605,-111.069 248.07605,-248.07 0,-137.023 -111.07,-248.082 -248.07605,-248.082 z"
     style="fill:#48a1af"
     inkscape:connector-curvature="0" /><path
     id="path4-3"
     d="m 975.72935,644.04045 c -1.934,0 -3.5,1.567 -3.5,3.5 v 52.135 c 0,1.933 1.566,3.5 3.5,3.5 1.933,0 3.5,-1.567 3.5,-3.5 v -52.135 c 0,-1.932 -1.568,-3.5 -3.5,-3.5 z"
     style="fill:#707070"
     inkscape:connector-curvature="0" /><path
     id="path6-7"
     d="m 1009.5774,690.53245 c -81.38505,-1.396 -173.20605,-10.509 -173.20605,-4.391 0,-4.889 75.463,5.065 144.025,4.974 v 230.587 c 50.23405,-0.78 96.84405,-16.481 135.59005,-42.883 v -192.677 c 10e-4,-3.846 -55.267,5.266 -106.409,4.39 z"
     style="fill:#f7f9f9"
     inkscape:connector-curvature="0" /><path
     id="path8-3"
     d="m 836.37135,686.14245 v 192.275 c 39.867,27.332 88.111,43.335 140.1,43.335 1.313,0 3.618,-0.029 4.926,-0.05 v -230.587 c -68.563,0.092 -145.026,-9.862 -145.026,-4.973 z"
     style="fill:#ffffff"
     inkscape:connector-curvature="0" /><path
     id="path10-3"
     d="m 1115.9874,686.14245 c 0,-3.923 -70.645,6.253 -122.90405,0.648 -96.666,-10.366 -156.711,-6.689 -156.711,-0.648 0,0 -8.683,31.128 -0.318,32.986 10.505,2.335 6.225,-9.726 12.84,-6.225 9.449,5.003 25.526,14.127 50.386,13.126 15.171,-0.61 4.667,18.064 14.005,19.232 9.337,1.167 4.668,-18.676 12.836,-19.639 80.40305,-9.481 154.37305,-16.278 169.44105,17.628 11.875,26.719 25.484,-5.447 28.014,-18.676 2.528,-13.226 -7.589,-38.432 -7.589,-38.432 z"
     style="fill:#f2f2f2"
     inkscape:connector-curvature="0" /><path
     id="path12-7"
     d="m 1016.0614,539.37845 c -0.419,14.796 -4.984,27.122 -17.30505,39.446 0,0 15.79905,-41.521 -0.924,-69.394 -17.791,-29.652 -43.563,-40.449 -43.563,-40.449 0,0 1.867,38.087 -7.823,63.289 -11.428,29.716 -34.685,49.287 -34.685,80.145 0,31.695 28.838,57.365 64.417,57.383 35.59305,-0.018 64.41705,-25.688 64.41705,-57.383 10e-4,-25.623 -10.692,-50.942 -24.534,-73.037 z"
     style="fill:#e17a2d"
     inkscape:connector-curvature="0" /><path
     id="path14-1"
     d="m 963.38935,547.87045 c 0,0 1.023,23.101 -4.295,38.386 -6.275,18.023 -19.049,29.892 -19.049,48.603 0,19.228 15.837,34.797 35.373,34.808 19.551,-0.011 33.92605,-15.637 35.37905,-34.808 3.633,-48.145 -47.40805,-86.989 -47.40805,-86.989 z"
     style="fill:#f4e028"
     inkscape:connector-curvature="0" /><path
     id="path16-0"
     d="m 967.83035,591.83945 c 0,0 0.65,14.639 -2.722,24.321 -3.973,11.418 -12.069,18.938 -12.069,30.8 0,12.18 10.036,22.041 22.412,22.053 12.387,-0.012 21.494,-9.909 22.414,-22.053 2.30505,-30.504 -30.035,-55.121 -30.035,-55.121 z"
     style="fill:#ffffff"
     inkscape:connector-curvature="0" /></g><path
   style="fill:none;stroke:#e00000;stroke-width:0.98128355;stroke-linecap:butt;stroke-linejoin:miter;stroke-miterlimit:4;stroke-dasharray:3.92513421, 0.98128355;stroke-dashoffset:0;stroke-opacity:1"
   d="M 91.757521,224.45864 354.2334,301.19349"
   id="path4644"
   inkscape:connector-curvature="0"
   sodipodi:nodetypes="cc" /><path
   style="fill:none;stroke:#e00000;stroke-width:1;stroke-linecap:butt;stroke-linejoin:miter;stroke-miterlimit:4;stroke-dasharray:4, 1;stroke-dashoffset:0;stroke-opacity:1"
   d="M 89.420756,347.95634 352.63206,270.47439"
   id="path4644-8"
   inkscape:connector-curvature="0"
   sodipodi:nodetypes="cc" /><circle
   style="fill:#1f1d00;fill-opacity:1;stroke:#000000;stroke-width:0.30788505;stroke-linecap:round;stroke-miterlimit:4;stroke-dasharray:none;stroke-dashoffset:0;stroke-opacity:1"
   id="path849"
   cx="301.02545"
   cy="285.80969"
   r="1.3768535" /></svg>